<?xml version="1.0" encoding="UTF-8"?>
<svg width="18px" height="18px" viewBox="0 0 18 18" version="1.1" xmlns="http://www.w3.org/2000/svg" xmlns:xlink="http://www.w3.org/1999/xlink">
    <!-- Generator: Sketch 57 (83077) - https://sketch.com -->
    <title>mdpi/分组 2 copy</title>
    <desc>Created with Sketch.</desc>
    <g id="页面-1" stroke="none" stroke-width="1" fill="none" fill-rule="evenodd">
        <g id="黑名单" transform="translate(-140.000000, -636.000000)">
            <g id="分组-3" transform="translate(139.000000, 635.000000)">
                <g id="分组-2-copy">
                    <rect id="矩形" fill="#FFFFFF" opacity="0" x="0" y="0" width="20" height="20"></rect>
                    <g id="资源-2" transform="translate(1.000000, 1.000000)">
                        <path d="M9,1.362 C13.2183509,1.362 16.638,4.78164908 16.638,9 C16.638,13.2183509 13.2183509,16.638 9,16.638 C4.78164908,16.638 1.362,13.2183509 1.362,9 C1.36695938,4.78370503 4.78370503,1.36695938 9,1.362 L9,1.362 Z M9,0 C4.02943725,0 0,4.02943725 0,9 C0,13.9705627 4.02943725,18 9,18 C13.9705627,18 18,13.9705627 18,9 C18,6.61305159 17.0517884,4.32386638 15.363961,2.63603897 C13.6761336,0.948211563 11.3869484,0 9,0 Z" id="形状" fill="#303133" fill-rule="nonzero"></path>
                        <path d="M11.925,8.325 L9.675,8.325 L9.675,6.075 C9.675,5.70220779 9.37279221,5.4 9,5.4 C8.62720779,5.4 8.325,5.70220779 8.325,6.075 L8.325,8.325 L6.075,8.325 C5.70220779,8.325 5.4,8.62720779 5.4,9 C5.4,9.37279221 5.70220779,9.675 6.075,9.675 L8.325,9.675 L8.325,11.925 C8.325,12.2977922 8.62720779,12.6 9,12.6 C9.37279221,12.6 9.675,12.2977922 9.675,11.925 L9.675,9.675 L11.925,9.675 C12.2977922,9.675 12.6,9.37279221 12.6,9 C12.6,8.62720779 12.2977922,8.325 11.925,8.325 L11.925,8.325 Z" id="路径" fill="#2E72F4"></path>
                        <rect id="矩形" x="0" y="0" width="18" height="18"></rect>
                    </g>
                </g>
            </g>
        </g>
    </g>
</svg>