<?xml version="1.0" encoding="UTF-8"?>
<svg width="19px" height="18px" viewBox="0 0 19 18" version="1.1" xmlns="http://www.w3.org/2000/svg" xmlns:xlink="http://www.w3.org/1999/xlink">
    <!-- Generator: Sketch 52.6 (67491) - http://www.bohemiancoding.com/sketch -->
    <title>资源 27 copy</title>
    <desc>Created with Sketch.</desc>
    <g id="页面-1" stroke="none" stroke-width="1" fill="none" fill-rule="evenodd">
        <g id="通话详情" transform="translate(-47.000000, -628.000000)">
            <g id="分组-10" transform="translate(46.000000, 627.000000)">
                <g id="资源-27-copy">
                    <rect id="矩形" x="0" y="0" width="20" height="20"></rect>
                    <path d="M16,2.95666667 L17.64,3.66666667 C17.1910978,4.91108573 16.6333842,6.11351626 15.9733333,7.26 C15.9151439,7.15429922 15.8494184,7.05292594 15.7766667,6.95666667 C15.4433333,6.51333333 15.16,6.14333333 14.8233333,5.70666667 C15.2710186,4.81473704 15.6639682,3.8963704 16,2.95666667 Z M6.26666667,14.29 L6.67333333,14.6233333 C6.93666667,14.84 7.18666667,15.0433333 7.46,15.26 C7.55392409,15.3337506 7.65307303,15.4005926 7.75666667,15.46 C6.62661751,16.1094261 5.43943088,16.6539253 4.21,17.0866667 L3.51333333,15.4766667 C4.46168386,15.1561993 5.38248033,14.7593427 6.26666667,14.29 Z M15.7033333,1.29 C15.2719885,1.29175671 14.8903811,1.56990011 14.7566667,1.98 C14.3654562,3.12739891 13.8839495,4.24199768 13.3166667,5.31333333 C13.1434971,5.65651863 13.1823716,6.0685881 13.4166667,6.37333333 C13.8566667,6.94 14.1766667,7.37333333 14.5566667,7.86333333 C14.8134623,8.2147531 14.8134623,8.69191357 14.5566667,9.04333333 C13.1866564,10.9766789 11.5193767,12.6810842 9.61666667,14.0933333 C9.44406917,14.2212842 9.23485169,14.2902441 9.02,14.29 C8.7963732,14.2898409 8.57925307,14.214729 8.40333333,14.0766667 C7.91666667,13.69 7.50333333,13.34 6.95666667,12.9033333 C6.77983397,12.7614624 6.56004211,12.6838888 6.33333333,12.6833333 C6.16648144,12.6827637 6.00230359,12.7252433 5.85666667,12.8066667 C4.79846391,13.3930569 3.68111787,13.8656943 2.52333333,14.2166667 C2.25972338,14.3045822 2.04458246,14.4982223 1.92949809,14.751155 C1.81441373,15.0040876 1.80976502,15.2935017 1.91666667,15.55 L3.03333333,18.1133333 C3.19091025,18.4780082 3.54940745,18.7148257 3.94666667,18.7166667 C4.09113864,18.7168921 4.23371843,18.6838136 4.36333333,18.62 C11.3243322,16.2375724 16.7926726,10.7704625 19.1766667,3.81 L19.2133333,3.69666667 C19.3736203,3.20804052 19.1371863,2.67750582 18.6666667,2.47 L16.11,1.36333333 C15.9866759,1.3107968 15.854048,1.28359107 15.72,1.28333333 L15.7033333,1.29 Z" id="形状" fill="#333333" fill-rule="nonzero"></path>
                    <rect id="矩形" x="0" y="0" width="20" height="20"></rect>
                    <path d="M7,3 C4.79086363,3 3,4.79086238 3,7 C3,9.20913762 4.79086364,11 7,11 C9.20913636,11 11,9.20913762 11,7 C11,4.79086238 9.20913637,3 7,3 Z M7,4.33333028 C7.49451818,4.33333028 7.9575,4.46811009 8.3545,4.70269725 L4.70268182,8.35452293 C4.46810909,7.95752294 4.33333636,7.49454129 4.33333636,7 C4.33332727,5.52726605 5.5272,4.33333028 7,4.33333028 Z M7,9.66666971 C6.50546364,9.66666971 6.04248182,9.53189907 5.64548181,9.29732109 L9.2973,5.64549541 C9.5318909,6.04249541 9.66666364,6.50547706 9.66666364,6.99999999 C9.66666364,8.47279816 8.47272728,9.66666971 7,9.66666971 Z" id="形状" fill="#333333" fill-rule="nonzero"></path>
                </g>
            </g>
        </g>
    </g>
</svg>