<?xml version="1.0" encoding="UTF-8"?>
<svg width="14px" height="14px" viewBox="0 0 14 14" version="1.1" xmlns="http://www.w3.org/2000/svg" xmlns:xlink="http://www.w3.org/1999/xlink">
    <!-- Generator: Sketch 52.6 (67491) - http://www.bohemiancoding.com/sketch -->
    <title>分组</title>
    <desc>Created with Sketch.</desc>
    <defs>
        <polygon id="path-1" points="0 0 13.9997 0 13.9997 13.9999 0 13.9999"></polygon>
    </defs>
    <g id="页面-1" stroke="none" stroke-width="1" fill="none" fill-rule="evenodd">
        <g id="通话详情-copy" transform="translate(-289.000000, -154.000000)">
            <g id="分组" transform="translate(289.000000, 154.000000)">
                <g>
                    <mask id="mask-2" fill="white">
                        <use xlink:href="#path-1"></use>
                    </mask>
                    <g id="Clip-2"></g>
                    <path d="M6.9997,12.9789 C3.7027,12.9789 1.0207,10.2969 1.0207,6.9999 C1.0207,3.7029 3.7027,1.0209 6.9997,1.0209 C10.2967,1.0209 12.9787,3.7029 12.9787,6.9999 C12.9787,10.2969 10.2967,12.9789 6.9997,12.9789 M6.9997,-0.0001 C3.1407,-0.0001 -0.0003,3.1399 -0.0003,6.9999 C-0.0003,10.8599 3.1407,13.9999 6.9997,13.9999 C10.8597,13.9999 13.9997,10.8599 13.9997,6.9999 C13.9997,3.1399 10.8597,-0.0001 6.9997,-0.0001" id="Fill-1" fill="#EE7E24" mask="url(#mask-2)"></path>
                </g>
                <path d="M5.0378,4.3188 L5.0238,4.3188 C4.6728,4.3188 4.3848,4.6068 4.3848,4.9588 L4.3848,9.0418 C4.3848,9.3938 4.6728,9.6808 5.0238,9.6808 L5.0378,9.6808 C5.3908,9.6808 5.6778,9.3938 5.6778,9.0418 L5.6778,4.9588 C5.6778,4.6068 5.3908,4.3188 5.0378,4.3188" id="Fill-3" fill="#EE7E24"></path>
                <path d="M8.9762,4.3188 L8.9612,4.3188 C8.6102,4.3188 8.3222,4.6068 8.3222,4.9588 L8.3222,9.0418 C8.3222,9.3938 8.6102,9.6808 8.9612,9.6808 L8.9762,9.6808 C9.3282,9.6808 9.6162,9.3938 9.6162,9.0418 L9.6162,4.9588 C9.6162,4.6068 9.3282,4.3188 8.9762,4.3188" id="Fill-5" fill="#EE7E24"></path>
            </g>
        </g>
    </g>
</svg>