<svg width="24" height="24" viewBox="0 0 24 24" fill="none" xmlns="http://www.w3.org/2000/svg">
<path d="M15.4922 11.1492C15.4922 11.6789 15.0633 12.1102 14.5313 12.1102H9.23206C8.70237 12.1102 8.27112 11.6813 8.27112 11.1492C8.27112 10.6195 8.70002 10.1883 9.23206 10.1883H14.5336C15.0633 10.1883 15.4922 10.6195 15.4922 11.1492Z" fill="#293547"/>
<path d="M12.5039 10.7742C12.1289 11.1492 11.5219 11.1492 11.1469 10.7742L8.77734 8.40702C8.40234 8.03202 8.40234 7.42499 8.77734 7.04999C9.15234 6.67499 9.75937 6.67499 10.1344 7.04999L12.5039 9.41952C12.8789 9.79218 12.8789 10.3992 12.5039 10.7742Z" fill="#293547"/>
<path d="M11.3086 10.7742C10.9336 10.3992 10.9336 9.79221 11.3086 9.41721L13.711 7.01721C14.086 6.64221 14.693 6.64221 15.068 7.01721C15.443 7.39221 15.443 7.99924 15.068 8.37424L12.668 10.7742C12.293 11.1492 11.6836 11.1492 11.3086 10.7742ZM15.4922 14.1797C15.4922 14.7094 15.0633 15.1406 14.5313 15.1406H9.23206C8.70237 15.1406 8.27112 14.7117 8.27112 14.1797C8.27112 13.65 8.70002 13.2188 9.23206 13.2188H14.5336C15.0633 13.2211 15.4922 13.65 15.4922 14.1797Z" fill="#293547"/>
<path d="M11.8828 17.3438C11.3531 17.3438 10.9219 16.9149 10.9219 16.3828V10.5141C10.9219 9.98439 11.3508 9.55314 11.8828 9.55314C12.4125 9.55314 12.8437 9.98204 12.8437 10.5141V16.3852C12.8437 16.9149 12.4125 17.3438 11.8828 17.3438ZM2.89685 18.907V17.9484V18.3281C2.9156 18.6516 3.18279 18.907 3.51091 18.907H2.89685ZM20.857 4.71564V5.67423V5.29454C20.8383 4.97111 20.5711 4.71564 20.2429 4.71564H20.857Z" fill="#293547"/>
<path d="M21.7242 9.23674C21.7524 9.23674 21.7828 9.23674 21.811 9.23909V9.23674C22.3406 9.23674 22.7719 8.80784 22.7719 8.27581V4.15549C22.6547 3.38909 21.9938 2.80315 21.1946 2.80315H21.1828V2.80081H19.9149V2.79846H2.45627C1.63362 2.86174 0.986743 3.55081 0.986743 4.38987V4.40159H0.984399V5.66956H0.982056V8.27815C0.982056 8.80784 1.41096 9.23909 1.94299 9.23909V9.24143C1.97112 9.24143 2.00159 9.23909 2.02971 9.23909C3.45002 9.23909 4.60081 10.3899 4.60081 11.8102C4.60081 13.2305 3.45002 14.3789 2.02971 14.3789C2.00159 14.3789 1.97112 14.3789 1.94299 14.3766V14.3789C1.41331 14.3789 0.982056 14.8078 0.982056 15.3399V19.2328C0.982056 20.0508 1.59846 20.7235 2.39065 20.8172H21.811C22.3406 20.8172 22.7719 20.3883 22.7719 19.8563C22.7719 19.3266 22.343 18.8953 21.811 18.8953H2.90159V16.2235C4.96877 15.818 6.52737 13.9946 6.52737 11.8078C6.52737 9.62112 4.96877 7.80002 2.90159 7.39221V4.71799H20.85V7.39456C18.7828 7.80002 17.2242 9.62346 17.2242 11.8102C17.2242 13.9969 18.7828 15.818 20.85 16.2258V16.9219C20.85 17.4516 21.2789 17.8828 21.811 17.8828C22.3406 17.8828 22.7719 17.4539 22.7719 16.9219V15.3422C22.7719 14.8125 22.343 14.3813 21.811 14.3813V14.3789C21.7828 14.3789 21.7524 14.3813 21.7242 14.3813C20.3039 14.3813 19.1531 13.2305 19.1531 11.8102C19.1531 10.3899 20.3039 9.23674 21.7242 9.23674Z" fill="#293547"/>
</svg>
