<svg width="28" height="28" viewBox="0 0 28 28" fill="none" xmlns="http://www.w3.org/2000/svg">
<path d="M14 0.601562C6.60023 0.601562 0.601562 6.60023 0.601562 14C0.601562 21.3998 6.60023 27.3984 14 27.3984C21.3998 27.3984 27.3984 21.3998 27.3984 14C27.3984 6.60023 21.3998 0.601562 14 0.601562ZM20.1813 8.19574L14.1515 22.1249C14.0645 22.324 13.7763 22.3185 13.6809 22.1137L11.2219 16.8593C11.2055 16.8233 11.1767 16.7945 11.1407 16.7781L5.89531 14.3166C5.68805 14.2212 5.6823 13.9325 5.8841 13.8455L19.795 7.8091C20.0386 7.70219 20.288 7.95184 20.1813 8.19574Z" fill="#C0C6CC"/>
</svg>
