<?xml version="1.0" encoding="UTF-8"?>
<svg width="20px" height="20px" viewBox="0 0 20 20" version="1.1" xmlns="http://www.w3.org/2000/svg" xmlns:xlink="http://www.w3.org/1999/xlink">
    <!-- Generator: Sketch 52.6 (67491) - http://www.bohemiancoding.com/sketch -->
    <title>矩形@2x</title>
    <desc>Created with Sketch.</desc>
    <defs>
        <polygon id="path-1" points="0 20 20 20 20 0 0 0"></polygon>
    </defs>
    <g id="页面-1" stroke="none" stroke-width="1" fill="none" fill-rule="evenodd">
        <g id="通话详情-copy" transform="translate(-345.000000, -83.000000)">
            <g id="分组" transform="translate(345.000000, 83.000000)">
                <rect id="矩形" x="0" y="0" width="20" height="20"></rect>
                <path d="M12.5834333,1.57026667 L7.41676667,1.57026667 C7.00243333,1.57026667 6.66676667,1.2346 6.66676667,0.820266667 C6.66676667,0.405933333 7.00243333,0.0702666667 7.41676667,0.0702666667 L12.5834333,0.0702666667 C12.9974333,0.0702666667 13.3334333,0.405933333 13.3334333,0.820266667 C13.3334333,1.2346 12.9974333,1.57026667 12.5834333,1.57026667" id="Fill-1" fill="#FFFFFF"></path>
                <path d="M8.7641,9.20746667 L8.7641,13.0408 C8.7641,13.4551333 8.42843333,13.7908 8.0141,13.7908 C7.6001,13.7908 7.2641,13.4551333 7.2641,13.0408 L7.2641,9.20746667 C7.2641,8.79313333 7.6001,8.45746667 8.0141,8.45746667 C8.42843333,8.45746667 8.7641,8.79313333 8.7641,9.20746667" id="Fill-3" fill-opacity="0.7" fill="#FFFFFF"></path>
                <path d="M12.7641,9.20746667 L12.7641,13.0408 C12.7641,13.4551333 12.4284333,13.7908 12.0141,13.7908 C11.6001,13.7908 11.2641,13.4551333 11.2641,13.0408 L11.2641,9.20746667 C11.2641,8.79313333 11.6001,8.45746667 12.0141,8.45746667 C12.4284333,8.45746667 12.7641,8.79313333 12.7641,9.20746667" id="Fill-5" fill-opacity="0.7" fill="#FFFFFF"></path>
                <mask id="mask-2" fill="white">
                    <use xlink:href="#path-1"></use>
                </mask>
                <g id="Clip-8"></g>
                <path d="M4.897,18.4296667 L15.132,18.4296667 L15.132,4.295 L4.897,4.295 L4.897,18.4296667 Z M17.8723333,2.795 L2.12766667,2.795 C1.71366667,2.795 1.37766667,3.13066667 1.37766667,3.545 C1.37766667,3.959 1.71366667,4.295 2.12766667,4.295 L3.397,4.295 L3.397,19.1796667 C3.397,19.594 3.733,19.9296667 4.147,19.9296667 L15.882,19.9296667 C16.296,19.9296667 16.632,19.594 16.632,19.1796667 L16.632,4.295 L17.8723333,4.295 C18.2863333,4.295 18.6223333,3.959 18.6223333,3.545 C18.6223333,3.13066667 18.2863333,2.795 17.8723333,2.795 Z" id="Fill-7" fill="#FFFFFF" mask="url(#mask-2)"></path>
            </g>
        </g>
    </g>
</svg>