<?xml version="1.0" encoding="UTF-8"?>
<svg width="26px" height="26px" viewBox="0 0 26 26" version="1.1" xmlns="http://www.w3.org/2000/svg" xmlns:xlink="http://www.w3.org/1999/xlink">
    <!-- Generator: Sketch 52.6 (67491) - http://www.bohemiancoding.com/sketch -->
    <title>edit copy 2</title>
    <desc>Created with Sketch.</desc>
    <g id="通话相关" stroke="none" stroke-width="1" fill="none" fill-rule="evenodd">
        <g id="iPhone-8-Copy" transform="translate(-542.000000, -185.000000)">
            <g id="edit-copy-2" transform="translate(539.000000, 182.000000)">
                <path d="M8.053125,23.5 C8.115625,23.5 8.178125,23.49375 8.240625,23.484375 L13.496875,22.5625 C13.559375,22.55 13.61875,22.521875 13.6625,22.475 L26.909375,9.228125 C27.03125,9.10625 27.03125,8.909375 26.909375,8.7875 L21.715625,3.590625 C21.65625,3.53125 21.578125,3.5 21.49375,3.5 C21.409375,3.5 21.33125,3.53125 21.271875,3.590625 L8.025,16.8375 C7.978125,16.884375 7.95,16.940625 7.9375,17.003125 L7.015625,22.259375 C6.95625,22.60625 7.0625,22.94375 7.309375,23.190625 C7.515625,23.390625 7.775,23.5 8.053125,23.5 Z M10.159375,18.05 L21.49375,6.71875 L23.784375,9.009375 L12.45,20.340625 L9.671875,20.83125 L10.159375,18.05 Z M27.5,26.125 L4.5,26.125 C3.946875,26.125 3.5,26.571875 3.5,27.125 L3.5,28.25 C3.5,28.3875 3.6125,28.5 3.75,28.5 L28.25,28.5 C28.3875,28.5 28.5,28.3875 28.5,28.25 L28.5,27.125 C28.5,26.571875 28.053125,26.125 27.5,26.125 Z" id="形状" fill="#FFFFFF" fill-rule="nonzero"></path>
                <rect id="矩形" fill="#000000" opacity="0" x="0" y="0" width="32" height="32"></rect>
            </g>
        </g>
    </g>
</svg>