<svg width="24" height="24" viewBox="0 0 24 24" fill="none" xmlns="http://www.w3.org/2000/svg">
<g clip-path="url(#clip0)">
<path d="M8.4125 2.3125C11.9837 2.3125 15.0112 3.89125 15.1187 6.1975L15.1206 6.32438V18.0744C15.1206 20.4494 12.0487 22.0863 8.41187 22.0863C4.77562 22.0863 1.70312 20.4494 1.70312 18.0744V14.175V10.25V6.32438V6.325C1.70312 3.95 4.77562 2.31312 8.41187 2.31312L8.4125 2.3125ZM17.5375 9.05188C21.1087 9.05188 24.1362 10.6306 24.2437 12.9375L24.2456 13.0638V16.9637C24.2456 19.3388 21.1737 20.975 17.5369 20.975C17.0544 20.975 16.5819 20.9463 16.1244 20.8906V18.9981C16.5681 19.0638 17.0425 19.1 17.5369 19.1C20.2125 19.1 22.2756 18.0338 22.3681 17.0331L22.3712 16.9631V15.8906C21.6044 16.3562 20.6431 16.7019 19.5637 16.8975C18.9144 17.015 18.2325 17.0756 17.5369 17.0756C17.0575 17.0756 16.5844 17.0469 16.1244 16.9906V15.0988C16.5781 15.1663 17.0531 15.2006 17.5369 15.2006C18.1212 15.2006 18.6912 15.1506 19.2294 15.0525C21.1581 14.7031 22.3712 13.8156 22.3712 13.0638C22.3712 12.0438 20.275 10.9269 17.5369 10.9269C17.0425 10.9269 16.5681 10.9637 16.1244 11.0294V9.13625C16.5931 9.07969 17.0648 9.05152 17.5369 9.05188H17.5375ZM13.2469 17.0019C12.4794 17.4675 11.5181 17.8131 10.4387 18.0088C9.78937 18.1263 9.1075 18.1869 8.41187 18.1869C7.7325 18.188 7.05438 18.1284 6.38562 18.0088C5.30625 17.8131 4.345 17.4675 3.57812 17.0025V18.0744L3.58125 18.1444C3.67375 19.145 5.73625 20.2113 8.4125 20.2113C11.15 20.2113 13.2462 19.095 13.2462 18.0744L13.2469 17.0019ZM13.2469 13.0769C12.4794 13.5419 11.5181 13.8881 10.4387 14.0831C9.78937 14.2013 9.1075 14.2613 8.41187 14.2613C7.7325 14.2624 7.05438 14.2028 6.38562 14.0831C5.30625 13.8881 4.345 13.5419 3.57812 13.0769V14.175L3.58187 14.2481C3.65687 14.9838 4.85313 15.8256 6.71938 16.1638C7.2575 16.2613 7.82812 16.3119 8.41187 16.3119C8.99625 16.3119 9.56625 16.2619 10.1044 16.1638C12.0331 15.8138 13.2462 14.9269 13.2462 14.175V14.1494L13.2469 13.0769ZM3.57812 9.15125V10.2494L3.58187 10.3231C3.65687 11.0587 4.85313 11.9 6.71938 12.2388C7.2575 12.3363 7.82812 12.3863 8.41187 12.3863C8.99625 12.3863 9.56625 12.3363 10.1044 12.2388C12.0331 11.8888 13.2462 11.0013 13.2462 10.25V9.15125C12.4794 9.61625 11.5181 9.9625 10.4387 10.1575C9.78937 10.2762 9.1075 10.3362 8.41187 10.3362C7.7325 10.3374 7.05438 10.2778 6.38562 10.1581C5.30625 9.9625 4.345 9.61688 3.57812 9.15125ZM8.41187 4.1875C5.67437 4.1875 3.57812 5.30375 3.57812 6.32438C3.57812 7.07625 4.79063 7.96375 6.72 8.31313C7.2575 8.41062 7.82812 8.46125 8.41187 8.46125C8.99625 8.46125 9.56625 8.41062 10.1044 8.31313C12.0331 7.96313 13.2462 7.07625 13.2462 6.32438C13.2462 5.30375 11.15 4.1875 8.41187 4.1875Z" fill="#293547"/>
</g>
<defs>
<clipPath id="clip0">
<rect width="24" height="24" fill="white"/>
</clipPath>
</defs>
</svg>
