<svg width="48" height="48" viewBox="0 0 48 48" fill="none" xmlns="http://www.w3.org/2000/svg">
<g filter="url(#filter0_d)">
<circle cx="24" cy="22" r="20" fill="white"/>
</g>
<path d="M34.1578 21.386H32.8945C32.5922 16.9563 29.0414 13.4079 24.6141 13.1055V12.1211C24.6141 11.7836 24.3375 11.5071 24 11.5071C23.6625 11.5071 23.3859 11.7836 23.3859 12.1211V13.1055C18.9586 13.4079 15.4078 16.9586 15.1055 21.386H13.8422C13.5047 21.386 13.2281 21.6625 13.2281 22C13.2281 22.3376 13.5047 22.6141 13.8422 22.6141H15.1055C15.4078 27.0415 18.9586 30.5922 23.3859 30.8946V31.879C23.3859 32.2165 23.6625 32.493 24 32.493C24.3375 32.493 24.6141 32.2165 24.6141 31.879V30.8946C29.0414 30.5922 32.5922 27.0415 32.8945 22.6141H34.1578C34.4953 22.6141 34.7719 22.3376 34.7719 22C34.7719 21.6625 34.4953 21.386 34.1578 21.386ZM24.6141 29.6618V25.729C24.6141 25.3915 24.3375 25.1149 24 25.1149C23.6625 25.1149 23.3859 25.3915 23.3859 25.729V29.6618C19.6359 29.3641 16.6383 26.3641 16.3383 22.6141H19.9945C20.332 22.6141 20.6086 22.3376 20.6086 22C20.6086 21.6625 20.332 21.386 19.9945 21.386H16.3383C16.6359 17.636 19.6359 14.6383 23.3859 14.3383V18.2711C23.3859 18.6086 23.6625 18.8852 24 18.8852C24.3375 18.8852 24.6141 18.6086 24.6141 18.2711V14.3383C28.3641 14.636 31.3617 17.636 31.6617 21.386H28.0078C27.6703 21.386 27.3937 21.6625 27.3937 22C27.3937 22.3376 27.6703 22.6141 28.0078 22.6141H31.6641C31.3641 26.3641 28.3641 29.3641 24.6141 29.6618Z" fill="#57626D"/>
<defs>
<filter id="filter0_d" x="0" y="0" width="48" height="48" filterUnits="userSpaceOnUse" color-interpolation-filters="sRGB">
<feFlood flood-opacity="0" result="BackgroundImageFix"/>
<feColorMatrix in="SourceAlpha" type="matrix" values="0 0 0 0 0 0 0 0 0 0 0 0 0 0 0 0 0 0 127 0"/>
<feOffset dy="2"/>
<feGaussianBlur stdDeviation="2"/>
<feColorMatrix type="matrix" values="0 0 0 0 0 0 0 0 0 0 0 0 0 0 0 0 0 0 0.06 0"/>
<feBlend mode="normal" in2="BackgroundImageFix" result="effect1_dropShadow"/>
<feBlend mode="normal" in="SourceGraphic" in2="effect1_dropShadow" result="shape"/>
</filter>
</defs>
</svg>
