<?xml version="1.0" standalone="no"?><!DOCTYPE svg PUBLIC "-//W3C//DTD SVG 1.1//EN" "http://www.w3.org/Graphics/SVG/1.1/DTD/svg11.dtd"><svg t="1560825776577" class="icon" style="" viewBox="0 0 1024 1024" version="1.1" xmlns="http://www.w3.org/2000/svg" p-id="2682" xmlns:xlink="http://www.w3.org/1999/xlink" width="200" height="200"><defs><style type="text/css"></style></defs><path d="M512 0C230.4 0 0 227.84 0 512s230.4 512 512 512c284.16 0 512-227.84 512-512S796.16 0 512 0z m0 941.056c-236.032 0-429.056-193.024-429.056-429.056S275.968 82.944 512 82.944s429.056 193.024 429.056 429.056c0 236.032-193.024 429.056-429.056 429.056z" fill="#333333" p-id="2683"></path><path d="M735.232 493.568l-4.608-2.56h-2.56L409.6 307.2c-4.608-2.56-9.216-4.608-13.824-4.608-13.824 0-23.04 9.216-23.04 23.04v372.224c0 13.824 9.216 23.04 23.04 23.04 4.608 0 9.216-2.56 13.824-4.608l318.976-183.808h2.56l4.608-2.56c4.608-4.608 9.216-11.776 9.216-18.432s-5.12-13.312-9.728-17.92z m-297.472 143.872v-250.88l218.624 125.44-218.624 125.44z" fill="#2E72F4" p-id="2684"></path></svg>